<svg xmlns="http://www.w3.org/2000/svg" width="83" height="29" viewBox="0 0 83 29" fill="none"><g clip-path="url(#clip0_250_596)"><path d="M33.9297 28.76V12.08C33.9297 9.40999 35.8597 7.18999 38.3997 6.73999V28.75H33.9297V28.76Z" fill="black"></path><path d="M38.3997 0H33.9297V4.43H38.3997V0Z" fill="black"></path><path d="M0 28.77V24.3H25.79V16.63H5.34C2.39 16.59 0 14.16 0 11.21V5.43002C0 2.49002 2.4 0.0600195 5.34 0.0200195H5.65H30.26V4.49002H11.7C5.73 4.70002 4.48 2.01002 4.48 2.01002V12.16H24.85C27.84 12.16 30.27 14.59 30.27 17.58V23.36C30.27 26.31 27.87 28.73 24.93 28.77H24.6H0.01H0Z" fill="black"></path><path d="M69.4081 0.64H73.3581V28.16H70.1381V6.17L68.9781 7.96C68.9781 7.96 65.8181 12.85 64.4581 15.26L58.0281 26.54L51.5981 15.26C50.2381 12.87 47.1181 7.57 47.0881 7.51L45.9181 5.52V28.15H42.6981V0.65H46.6481L56.0281 17.74C56.8581 19.33 57.3281 21.12 57.3881 22.92L57.4181 23.55H58.6481L58.6681 22.92C58.7281 21.12 59.1981 19.32 60.0181 17.75L69.4081 0.64ZM69.0381 0L59.4781 17.44C58.5981 19.13 58.1181 20.99 58.0481 22.89C58.0481 22.89 58.0281 22.89 58.0181 22.89C57.9581 20.99 57.4681 19.13 56.5881 17.44L47.0281 0L42.0781 0.02V28.78H46.5481V7.83C46.5481 7.83 49.6781 13.15 51.0581 15.57L58.0281 27.81L64.9981 15.57C66.3781 13.15 69.5081 8.3 69.5081 8.3V28.77H73.9781V0.02L69.0281 0H69.0381Z" fill="black"></path><path d="M81.8791 7.57001V28.15H78.6591V12.09C78.6591 10.02 79.9691 8.22001 81.8791 7.56001M82.5091 6.76001C79.9691 7.21001 78.0391 9.43001 78.0391 12.1V28.78H82.5091V6.76001Z" fill="black"></path><path d="M81.8791 0.64002V3.82002H78.6591V0.64002H81.8791ZM82.5091 0.0200195H78.0391V4.45002H82.5091V0.0200195Z" fill="black"></path></g><defs><clipPath id="clip0_250_596"><rect width="82.51" height="28.78" fill="white"></rect></clipPath></defs></svg>