<svg width="200" height="200" viewBox="0 0 200 200" xmlns="http://www.w3.org/2000/svg">
  <defs>
    <style>
      .circuit-text { font-family: 'Courier New', monospace; font-size: 8px; fill: #00ff41; }
      .binary-text { font-family: 'Courier New', monospace; font-size: 6px; fill: #00ff41; opacity: 0.7; }
    </style>
  </defs>
  
  <!-- Background -->
  <rect width="200" height="200" fill="#000000"/>
  
  <!-- Central Palm Tree Structure -->
  <g transform="translate(100, 100)">
    <!-- Trunk -->
    <path d="M-8 50 L-6 20 L-4 -10 L-2 -30 L0 -50 L2 -30 L4 -10 L6 20 L8 50 Z" 
          fill="none" stroke="#00ff41" stroke-width="2"/>
    
    <!-- Trunk segments -->
    <line x1="-6" y1="40" x2="6" y2="40" stroke="#00ff41" stroke-width="1"/>
    <line x1="-5" y1="25" x2="5" y2="25" stroke="#00ff41" stroke-width="1"/>
    <line x1="-4" y1="10" x2="4" y2="10" stroke="#00ff41" stroke-width="1"/>
    <line x1="-3" y1="-5" x2="3" y2="-5" stroke="#00ff41" stroke-width="1"/>
    <line x1="-2" y1="-20" x2="2" y2="-20" stroke="#00ff41" stroke-width="1"/>
    
    <!-- Palm Fronds with Circuit Patterns -->
    <!-- Top Frond -->
    <path d="M0 -50 Q-15 -65 -30 -70 Q-45 -75 -60 -65 Q-50 -60 -35 -55 Q-20 -52 0 -50" 
          fill="none" stroke="#00ff41" stroke-width="2"/>
    <path d="M0 -50 Q15 -65 30 -70 Q45 -75 60 -65 Q50 -60 35 -55 Q20 -52 0 -50" 
          fill="none" stroke="#00ff41" stroke-width="2"/>
    
    <!-- Left Fronds -->
    <path d="M0 -50 Q-25 -45 -50 -35 Q-70 -25 -80 -10 Q-75 -15 -55 -25 Q-30 -35 0 -50" 
          fill="none" stroke="#00ff41" stroke-width="2"/>
    <path d="M0 -50 Q-30 -30 -55 -15 Q-75 -5 -85 15 Q-80 10 -60 0 Q-35 -20 0 -50" 
          fill="none" stroke="#00ff41" stroke-width="2"/>
    
    <!-- Right Fronds -->
    <path d="M0 -50 Q25 -45 50 -35 Q70 -25 80 -10 Q75 -15 55 -25 Q30 -35 0 -50" 
          fill="none" stroke="#00ff41" stroke-width="2"/>
    <path d="M0 -50 Q30 -30 55 -15 Q75 -5 85 15 Q80 10 60 0 Q35 -20 0 -50" 
          fill="none" stroke="#00ff41" stroke-width="2"/>
    
    <!-- Circuit Board Elements -->
    <!-- Connection Points -->
    <circle cx="-60" cy="-65" r="2" fill="#00ff41"/>
    <circle cx="60" cy="-65" r="2" fill="#00ff41"/>
    <circle cx="-80" cy="-10" r="2" fill="#00ff41"/>
    <circle cx="80" cy="-10" r="2" fill="#00ff41"/>
    <circle cx="-85" cy="15" r="2" fill="#00ff41"/>
    <circle cx="85" cy="15" r="2" fill="#00ff41"/>
    
    <!-- Circuit Lines -->
    <line x1="-60" y1="-65" x2="-70" y2="-75" stroke="#00ff41" stroke-width="1"/>
    <line x1="60" y1="-65" x2="70" y2="-75" stroke="#00ff41" stroke-width="1"/>
    <line x1="-80" y1="-10" x2="-90" y2="-20" stroke="#00ff41" stroke-width="1"/>
    <line x1="80" y1="-10" x2="90" y2="-20" stroke="#00ff41" stroke-width="1"/>
    
    <!-- Binary Code -->
    <text x="-90" y="-80" class="binary-text">001101</text>
    <text x="70" y="-80" class="binary-text">110010</text>
    <text x="-95" y="-25" class="binary-text">101011</text>
    <text x="75" y="-25" class="binary-text">010110</text>
    
    <!-- Tech Labels -->
    <text x="-75" y="-90" class="circuit-text">SECURE</text>
    <text x="45" y="-90" class="circuit-text">DOCKER</text>
    <text x="-85" y="35" class="circuit-text">CYBER</text>
    <text x="55" y="35" class="circuit-text">LABS</text>
  </g>
  
  <!-- Corner Circuit Elements -->
  <g>
    <!-- Top Left -->
    <circle cx="20" cy="20" r="1" fill="#00ff41"/>
    <line x1="20" y1="20" x2="30" y2="15" stroke="#00ff41" stroke-width="0.5"/>
    <line x1="20" y1="20" x2="15" y2="30" stroke="#00ff41" stroke-width="0.5"/>
    
    <!-- Top Right -->
    <circle cx="180" cy="20" r="1" fill="#00ff41"/>
    <line x1="180" y1="20" x2="170" y2="15" stroke="#00ff41" stroke-width="0.5"/>
    <line x1="180" y1="20" x2="185" y2="30" stroke="#00ff41" stroke-width="0.5"/>
    
    <!-- Bottom Left -->
    <circle cx="20" cy="180" r="1" fill="#00ff41"/>
    <line x1="20" y1="180" x2="30" y2="185" stroke="#00ff41" stroke-width="0.5"/>
    <line x1="20" y1="180" x2="15" y2="170" stroke="#00ff41" stroke-width="0.5"/>
    
    <!-- Bottom Right -->
    <circle cx="180" cy="180" r="1" fill="#00ff41"/>
    <line x1="180" y1="180" x2="170" y2="185" stroke="#00ff41" stroke-width="0.5"/>
    <line x1="180" y1="180" x2="185" y2="170" stroke="#00ff41" stroke-width="0.5"/>
  </g>
</svg>